<svg xmlns="http://www.w3.org/2000/svg" width="300" height="300" viewBox="0 0 300 300">
  <style>
    .fret { stroke: #000; stroke-width: 2px; }
    .string { stroke: #000; }
    .nut { stroke: #000; stroke-width: 5px; }
    .fret-text { font-family: sans-serif; font-size: 14px; text-anchor: middle; font-weight: bold; }
    .tuning-text { font-family: sans-serif; font-weight: bold; font-size: 16px; text-anchor: middle; alignment-baseline: middle; }
    .note-circle { stroke: #000; stroke-width: 1px; }
    .note-text { font-family: sans-serif; font-weight: bold; font-size: 14px; text-anchor: middle; alignment-baseline: central; }
    .note-text-small { font-family: sans-serif; font-weight: bold; font-size: 10px; text-anchor: middle; alignment-baseline: central; }
    .title-text { font-family: sans-serif; font-size: 24px; text-anchor: middle; font-weight: bold; }
    .legend-text { font-family: sans-serif; font-size: 14px; text-anchor: start; }
    .split-line { stroke: #000; stroke-width: 1px; }
  </style>
  <rect width="100%" height="100%" fill="white"/>
  <text x="150.0" y="30" class="title-text">Detected: C Major</text>
  <line x1="60" y1="260" x2="260" y2="260" class="nut"/>
  <line x1="60" y1="210" x2="260" y2="210" class="fret"/>
  <text x="285" y="235.0" class="fret-text">1</text>
  <line x1="60" y1="160" x2="260" y2="160" class="fret"/>
  <text x="285" y="185.0" class="fret-text">2</text>
  <line x1="60" y1="110" x2="260" y2="110" class="fret"/>
  <text x="285" y="135.0" class="fret-text">3</text>
  <line x1="60" y1="60" x2="260" y2="60" class="fret"/>
  <text x="285" y="85.0" class="fret-text">4</text>
  <line x1="60" y1="260" x2="60" y2="60" class="string" style="stroke-width: 1.0px;"/>
  <text x="60" y="285" class="tuning-text">E</text>
  <line x1="100" y1="260" x2="100" y2="60" class="string" style="stroke-width: 1.5px;"/>
  <text x="100" y="285" class="tuning-text">B</text>
  <line x1="140" y1="260" x2="140" y2="60" class="string" style="stroke-width: 2.0px;"/>
  <text x="140" y="285" class="tuning-text">G</text>
  <line x1="180" y1="260" x2="180" y2="60" class="string" style="stroke-width: 2.5px;"/>
  <text x="180" y="285" class="tuning-text">D</text>
  <line x1="220" y1="260" x2="220" y2="60" class="string" style="stroke-width: 3.0px;"/>
  <text x="220" y="285" class="tuning-text">A</text>
  <line x1="260" y1="260" x2="260" y2="60" class="string" style="stroke-width: 3.5px;"/>
  <text x="260" y="285" class="tuning-text">E</text>
  <circle cx="220" cy="135.0" r="14" fill="#E41A1C" opacity="1.0" stroke="black" stroke-width="1" class="note-circle"/>
  <text x="220" y="135.0" fill="#FFFFFF" opacity="1.0" class="note-text">C</text>
  <circle cx="180" cy="185.0" r="14" fill="#E41A1C" opacity="1.0" stroke="black" stroke-width="1" class="note-circle"/>
  <text x="180" y="185.0" fill="#FFFFFF" opacity="1.0" class="note-text">E</text>
  <circle cx="140" cy="280.0" r="14" fill="#E41A1C" opacity="1.0" stroke="black" stroke-width="1" class="note-circle"/>
  <text x="140" y="280.0" fill="#FFFFFF" opacity="1.0" class="note-text">G</text>
  <circle cx="100" cy="235.0" r="14" fill="#E41A1C" opacity="1.0" stroke="black" stroke-width="1" class="note-circle"/>
  <text x="100" y="235.0" fill="#FFFFFF" opacity="1.0" class="note-text">C</text>
  <circle cx="60" cy="280.0" r="14" fill="#E41A1C" opacity="1.0" stroke="black" stroke-width="1" class="note-circle"/>
  <text x="60" y="280.0" fill="#FFFFFF" opacity="1.0" class="note-text">E</text>
</svg>