<svg xmlns="http://www.w3.org/2000/svg" width="930" height="230" viewBox="0 0 930 230">
  <style>
    .fret { stroke: #000; stroke-width: 2px; }
    .string { stroke: #000; }
    .nut { stroke: #000; stroke-width: 4px; }
    .fret-text { font-family: sans-serif; font-size: 12px; text-anchor: middle; }
    .tuning-text { font-family: sans-serif; font-weight: bold; font-size: 14px; text-anchor: middle; alignment-baseline: middle; }
    .note-circle { stroke: #000; stroke-width: 1px; }
    .note-text { font-family: sans-serif; font-weight: bold; font-size: 14px; text-anchor: middle; alignment-baseline: central; }
    .title-text { font-family: sans-serif; font-size: 20px; text-anchor: middle; }
  </style>
  <rect width="100%" height="100%" fill="white"/>
  <text x="465.0" y="25" class="title-text">F Major scale (F, G, A, Bb, C, D, E)</text>
  <line x1="50" y1="50" x2="50" y2="200" class="fret"/>
  <line x1="100" y1="50" x2="100" y2="200" class="fret"/>
  <text x="75.0" y="40" class="fret-text">-1</text>
  <line x1="150" y1="50" x2="150" y2="200" class="nut"/>
  <text x="125.0" y="40" class="fret-text">0</text>
  <line x1="200" y1="50" x2="200" y2="200" class="fret"/>
  <text x="175.0" y="40" class="fret-text">1</text>
  <line x1="250" y1="50" x2="250" y2="200" class="fret"/>
  <text x="225.0" y="40" class="fret-text">2</text>
  <line x1="300" y1="50" x2="300" y2="200" class="fret"/>
  <text x="275.0" y="40" class="fret-text">3</text>
  <line x1="350" y1="50" x2="350" y2="200" class="fret"/>
  <text x="325.0" y="40" class="fret-text">4</text>
  <line x1="400" y1="50" x2="400" y2="200" class="fret"/>
  <text x="375.0" y="40" class="fret-text">5</text>
  <line x1="450" y1="50" x2="450" y2="200" class="fret"/>
  <text x="425.0" y="40" class="fret-text">6</text>
  <line x1="500" y1="50" x2="500" y2="200" class="fret"/>
  <text x="475.0" y="40" class="fret-text">7</text>
  <line x1="550" y1="50" x2="550" y2="200" class="fret"/>
  <text x="525.0" y="40" class="fret-text">8</text>
  <line x1="600" y1="50" x2="600" y2="200" class="fret"/>
  <text x="575.0" y="40" class="fret-text">9</text>
  <line x1="650" y1="50" x2="650" y2="200" class="fret"/>
  <text x="625.0" y="40" class="fret-text">10</text>
  <line x1="700" y1="50" x2="700" y2="200" class="fret"/>
  <text x="675.0" y="40" class="fret-text">11</text>
  <line x1="750" y1="50" x2="750" y2="200" class="fret"/>
  <text x="725.0" y="40" class="fret-text">12</text>
  <line x1="800" y1="50" x2="800" y2="200" class="fret"/>
  <text x="775.0" y="40" class="fret-text">13</text>
  <line x1="850" y1="50" x2="850" y2="200" class="fret"/>
  <text x="825.0" y="40" class="fret-text">14</text>
  <line x1="50" y1="50" x2="850" y2="50" class="string" style="stroke-width: 1.0px;"/>
  <text x="30" y="50" class="tuning-text">E</text>
  <line x1="50" y1="80" x2="850" y2="80" class="string" style="stroke-width: 1.4px;"/>
  <text x="30" y="80" class="tuning-text">B</text>
  <line x1="50" y1="110" x2="850" y2="110" class="string" style="stroke-width: 1.8px;"/>
  <text x="30" y="110" class="tuning-text">G</text>
  <line x1="50" y1="140" x2="850" y2="140" class="string" style="stroke-width: 2.2px;"/>
  <text x="30" y="140" class="tuning-text">D</text>
  <line x1="50" y1="170" x2="850" y2="170" class="string" style="stroke-width: 2.6px;"/>
  <text x="30" y="170" class="tuning-text">A</text>
  <line x1="50" y1="200" x2="850" y2="200" class="string" style="stroke-width: 3.0px;"/>
  <text x="30" y="200" class="tuning-text">E</text>
  <circle cx="425.0" cy="50" r="12" fill="#E41A1C" class="note-circle"/>
  <text x="425.0" y="50" fill="#FFFFFF" class="note-text">F</text>
  <circle cx="75.0" cy="80" r="12" fill="#E41A1C" class="note-circle"/>
  <text x="75.0" y="80" fill="#FFFFFF" class="note-text">F</text>
  <circle cx="675.0" cy="80" r="12" fill="#E41A1C" class="note-circle"/>
  <text x="675.0" y="80" fill="#FFFFFF" class="note-text">F</text>
  <circle cx="275.0" cy="110" r="12" fill="#E41A1C" class="note-circle"/>
  <text x="275.0" y="110" fill="#FFFFFF" class="note-text">F</text>
  <circle cx="525.0" cy="140" r="12" fill="#E41A1C" class="note-circle"/>
  <text x="525.0" y="140" fill="#FFFFFF" class="note-text">F</text>
  <circle cx="175.0" cy="170" r="12" fill="#E41A1C" class="note-circle"/>
  <text x="175.0" y="170" fill="#FFFFFF" class="note-text">F</text>
  <circle cx="775.0" cy="170" r="12" fill="#E41A1C" class="note-circle"/>
  <text x="775.0" y="170" fill="#FFFFFF" class="note-text">F</text>
  <circle cx="425.0" cy="200" r="12" fill="#E41A1C" class="note-circle"/>
  <text x="425.0" y="200" fill="#FFFFFF" class="note-text">F</text>
  <circle cx="525.0" cy="50" r="12" fill="#000000" class="note-circle"/>
  <text x="525.0" y="50" fill="#FFFFFF" class="note-text">G</text>
  <circle cx="175.0" cy="80" r="12" fill="#000000" class="note-circle"/>
  <text x="175.0" y="80" fill="#FFFFFF" class="note-text">G</text>
  <circle cx="775.0" cy="80" r="12" fill="#000000" class="note-circle"/>
  <text x="775.0" y="80" fill="#FFFFFF" class="note-text">G</text>
  <circle cx="375.0" cy="110" r="12" fill="#000000" class="note-circle"/>
  <text x="375.0" y="110" fill="#FFFFFF" class="note-text">G</text>
  <circle cx="25.0" cy="140" r="12" fill="#000000" class="note-circle"/>
  <text x="25.0" y="140" fill="#FFFFFF" class="note-text">G</text>
  <circle cx="625.0" cy="140" r="12" fill="#000000" class="note-circle"/>
  <text x="625.0" y="140" fill="#FFFFFF" class="note-text">G</text>
  <circle cx="275.0" cy="170" r="12" fill="#000000" class="note-circle"/>
  <text x="275.0" y="170" fill="#FFFFFF" class="note-text">G</text>
  <circle cx="525.0" cy="200" r="12" fill="#000000" class="note-circle"/>
  <text x="525.0" y="200" fill="#FFFFFF" class="note-text">G</text>
  <circle cx="25.0" cy="50" r="12" fill="#000000" class="note-circle"/>
  <text x="25.0" y="50" fill="#FFFFFF" class="note-text">A</text>
  <circle cx="625.0" cy="50" r="12" fill="#000000" class="note-circle"/>
  <text x="625.0" y="50" fill="#FFFFFF" class="note-text">A</text>
  <circle cx="275.0" cy="80" r="12" fill="#000000" class="note-circle"/>
  <text x="275.0" y="80" fill="#FFFFFF" class="note-text">A</text>
  <circle cx="475.0" cy="110" r="12" fill="#000000" class="note-circle"/>
  <text x="475.0" y="110" fill="#FFFFFF" class="note-text">A</text>
  <circle cx="33.33333333333333" cy="140" r="12" fill="#000000" class="note-circle"/>
  <text x="33.33333333333333" y="140" fill="#FFFFFF" class="note-text">A</text>
  <circle cx="725.0" cy="140" r="12" fill="#000000" class="note-circle"/>
  <text x="725.0" y="140" fill="#FFFFFF" class="note-text">A</text>
  <circle cx="375.0" cy="170" r="12" fill="#000000" class="note-circle"/>
  <text x="375.0" y="170" fill="#FFFFFF" class="note-text">A</text>
  <circle cx="25.0" cy="200" r="12" fill="#000000" class="note-circle"/>
  <text x="25.0" y="200" fill="#FFFFFF" class="note-text">A</text>
  <circle cx="625.0" cy="200" r="12" fill="#000000" class="note-circle"/>
  <text x="625.0" y="200" fill="#FFFFFF" class="note-text">A</text>
  <circle cx="75.0" cy="50" r="12" fill="#000000" class="note-circle"/>
  <text x="75.0" y="50" fill="#FFFFFF" class="note-text">Bb</text>
  <circle cx="675.0" cy="50" r="12" fill="#000000" class="note-circle"/>
  <text x="675.0" y="50" fill="#FFFFFF" class="note-text">Bb</text>
  <circle cx="325.0" cy="80" r="12" fill="#000000" class="note-circle"/>
  <text x="325.0" y="80" fill="#FFFFFF" class="note-text">Bb</text>
  <circle cx="525.0" cy="110" r="12" fill="#000000" class="note-circle"/>
  <text x="525.0" y="110" fill="#FFFFFF" class="note-text">Bb</text>
  <circle cx="175.0" cy="140" r="12" fill="#000000" class="note-circle"/>
  <text x="175.0" y="140" fill="#FFFFFF" class="note-text">Bb</text>
  <circle cx="775.0" cy="140" r="12" fill="#000000" class="note-circle"/>
  <text x="775.0" y="140" fill="#FFFFFF" class="note-text">Bb</text>
  <circle cx="425.0" cy="170" r="12" fill="#000000" class="note-circle"/>
  <text x="425.0" y="170" fill="#FFFFFF" class="note-text">Bb</text>
  <circle cx="75.0" cy="200" r="12" fill="#000000" class="note-circle"/>
  <text x="75.0" y="200" fill="#FFFFFF" class="note-text">Bb</text>
  <circle cx="675.0" cy="200" r="12" fill="#000000" class="note-circle"/>
  <text x="675.0" y="200" fill="#FFFFFF" class="note-text">Bb</text>
  <circle cx="175.0" cy="50" r="12" fill="#000000" class="note-circle"/>
  <text x="175.0" y="50" fill="#FFFFFF" class="note-text">C</text>
  <circle cx="775.0" cy="50" r="12" fill="#000000" class="note-circle"/>
  <text x="775.0" y="50" fill="#FFFFFF" class="note-text">C</text>
  <circle cx="425.0" cy="80" r="12" fill="#000000" class="note-circle"/>
  <text x="425.0" y="80" fill="#FFFFFF" class="note-text">C</text>
  <circle cx="25.0" cy="110" r="12" fill="#000000" class="note-circle"/>
  <text x="25.0" y="110" fill="#FFFFFF" class="note-text">C</text>
  <circle cx="625.0" cy="110" r="12" fill="#000000" class="note-circle"/>
  <text x="625.0" y="110" fill="#FFFFFF" class="note-text">C</text>
  <circle cx="275.0" cy="140" r="12" fill="#000000" class="note-circle"/>
  <text x="275.0" y="140" fill="#FFFFFF" class="note-text">C</text>
  <circle cx="525.0" cy="170" r="12" fill="#000000" class="note-circle"/>
  <text x="525.0" y="170" fill="#FFFFFF" class="note-text">C</text>
  <circle cx="175.0" cy="200" r="12" fill="#000000" class="note-circle"/>
  <text x="175.0" y="200" fill="#FFFFFF" class="note-text">C</text>
  <circle cx="775.0" cy="200" r="12" fill="#000000" class="note-circle"/>
  <text x="775.0" y="200" fill="#FFFFFF" class="note-text">C</text>
  <circle cx="275.0" cy="50" r="12" fill="#000000" class="note-circle"/>
  <text x="275.0" y="50" fill="#FFFFFF" class="note-text">D</text>
  <circle cx="525.0" cy="80" r="12" fill="#000000" class="note-circle"/>
  <text x="525.0" y="80" fill="#FFFFFF" class="note-text">D</text>
  <circle cx="33.33333333333333" cy="110" r="12" fill="#000000" class="note-circle"/>
  <text x="33.33333333333333" y="110" fill="#FFFFFF" class="note-text">D</text>
  <circle cx="725.0" cy="110" r="12" fill="#000000" class="note-circle"/>
  <text x="725.0" y="110" fill="#FFFFFF" class="note-text">D</text>
  <circle cx="375.0" cy="140" r="12" fill="#000000" class="note-circle"/>
  <text x="375.0" y="140" fill="#FFFFFF" class="note-text">D</text>
  <circle cx="25.0" cy="170" r="12" fill="#000000" class="note-circle"/>
  <text x="25.0" y="170" fill="#FFFFFF" class="note-text">D</text>
  <circle cx="625.0" cy="170" r="12" fill="#000000" class="note-circle"/>
  <text x="625.0" y="170" fill="#FFFFFF" class="note-text">D</text>
  <circle cx="275.0" cy="200" r="12" fill="#000000" class="note-circle"/>
  <text x="275.0" y="200" fill="#FFFFFF" class="note-text">D</text>
  <circle cx="375.0" cy="50" r="12" fill="#000000" class="note-circle"/>
  <text x="375.0" y="50" fill="#FFFFFF" class="note-text">E</text>
  <circle cx="25.0" cy="80" r="12" fill="#000000" class="note-circle"/>
  <text x="25.0" y="80" fill="#FFFFFF" class="note-text">E</text>
  <circle cx="625.0" cy="80" r="12" fill="#000000" class="note-circle"/>
  <text x="625.0" y="80" fill="#FFFFFF" class="note-text">E</text>
  <circle cx="225.0" cy="110" r="12" fill="#000000" class="note-circle"/>
  <text x="225.0" y="110" fill="#FFFFFF" class="note-text">E</text>
  <circle cx="825.0" cy="110" r="12" fill="#000000" class="note-circle"/>
  <text x="825.0" y="110" fill="#FFFFFF" class="note-text">E</text>
  <circle cx="475.0" cy="140" r="12" fill="#000000" class="note-circle"/>
  <text x="475.0" y="140" fill="#FFFFFF" class="note-text">E</text>
  <circle cx="33.33333333333333" cy="170" r="12" fill="#000000" class="note-circle"/>
  <text x="33.33333333333333" y="170" fill="#FFFFFF" class="note-text">E</text>
  <circle cx="725.0" cy="170" r="12" fill="#000000" class="note-circle"/>
  <text x="725.0" y="170" fill="#FFFFFF" class="note-text">E</text>
  <circle cx="375.0" cy="200" r="12" fill="#000000" class="note-circle"/>
  <text x="375.0" y="200" fill="#FFFFFF" class="note-text">E</text>
</svg>